<?xml version="1.0" encoding="utf-8"?>
<svg version="1.1" xmlns:xlink="http://www.w3.org/1999/xlink" width="150px" height="50px" xmlns="http://www.w3.org/2000/svg">
  <defs>
    <mask fill="white" id="clip64">
      <path d="M 0 50  L 0 0  L 96.8787878787889 0  L 150 0  L 150 50  L 68.9999999999999 50  L 0 50  Z " fill-rule="evenodd" />
    </mask>
  </defs>
  <g transform="matrix(1 0 0 1 -830 -46 )">
    <path d="M 0 50  L 0 0  L 96.8787878787889 0  L 150 0  L 150 50  L 68.9999999999999 50  L 0 50  Z " fill-rule="nonzero" fill="#05a081" stroke="none" transform="matrix(1 0 0 1 830 46 )" />
    <path d="M 0 50  L 0 0  L 96.8787878787889 0  L 150 0  L 150 50  L 68.9999999999999 50  L 0 50  Z " stroke-width="2" stroke="#797979" fill="none" transform="matrix(1 0 0 1 830 46 )" mask="url(#clip64)" />
  </g>
</svg>