<?xml version="1.0" encoding="utf-8"?>
<svg version="1.1" xmlns:xlink="http://www.w3.org/1999/xlink" width="100px" height="94px" xmlns="http://www.w3.org/2000/svg">
  <g transform="matrix(1 0 0 1 -553 -717 )">
    <path d="M 0 20.1428571428571  L 50 0  L 100 20.1428571428571  L 100 26.8571428571429  L 93.3333333333333 26.8571428571429  C 93.3333333333333 27.766369047619  92.9774305555556 28.5531994047619  92.265625 29.2176339285714  C 91.5538194444445 29.8820684523809  90.7118055555556 30.2142857142857  89.7395833333333 31  L 10.2604166666667 31  C 9.28819444444444 30.2142857142857  8.44618055555556 29.8820684523809  7.734375 29.2176339285714  C 7.02256944444444 28.5531994047619  6.66666666666667 27.766369047619  6.66666666666667 26.8571428571429  L 0 26.8571428571429  L 0 20.1428571428571  Z M 14 73.8571428571429  L 14 34  L 27 34  L 27 73.8571428571429  L 34 73.8571428571429  L 34 34  L 47 34  L 47 73.8571428571429  L 53 73.8571428571429  L 53 34  L 66 34  L 66 73.8571428571429  L 73 73.8571428571429  L 73 34  L 86 34  L 86 73.8571428571429  L 89.7395833333333 73.8571428571429  C 90.7118055555556 73.8571428571429  91.5538194444445 74.1893601190476  92.265625 74.8537946428571  C 92.9774305555556 75.5182291666667  93.3333333333333 76.3050595238095  93.3333333333333 77.2142857142857  L 93.3333333333333 80  L 6.66666666666667 80  L 6.66666666666667 77.2142857142857  C 6.66666666666667 76.3050595238095  7.02256944444444 75.5182291666667  7.734375 74.8537946428571  C 8.44618055555556 74.1893601190476  9.28819444444444 73.8571428571429  10.2604166666667 73.8571428571429  L 14 73.8571428571429  Z M 3.59375 84  L 96.40625 84  C 97.3784722222222 83.9285714285714  98.2204861111111 84.2607886904762  98.9322916666667 84.9252232142857  C 99.6440972222222 85.5896577380952  100 86.3764880952381  100 87.2857142857143  L 100 94  L 0 94  L 0 87.2857142857143  C 0 86.3764880952381  0.355902777777778 85.5896577380952  1.06770833333333 84.9252232142857  C 1.77951388888889 84.2607886904762  2.62152777777778 83.9285714285714  3.59375 84  Z " fill-rule="nonzero" fill="#9695b3" stroke="none" transform="matrix(1 0 0 1 553 717 )" />
  </g>
</svg>