<?xml version="1.0" encoding="utf-8"?>
<svg version="1.1" xmlns:xlink="http://www.w3.org/1999/xlink" width="50px" height="52px" xmlns="http://www.w3.org/2000/svg">
  <g transform="matrix(1 0 0 1 -466 -115 )">
    <path d="M 33.0891927083333 6.05989583333334  C 30.517578125 4.90885416666666  27.8211805555556 4.33333333333334  25 4.33333333333334  C 22.1788194444444 4.33333333333334  19.482421875 4.90885416666666  16.9108072916667 6.05989583333334  C 14.3391927083333 7.2109375  12.1256510416667 8.75130208333334  10.2701822916667 10.6809895833333  C 8.41471354166667 12.6106770833333  6.93359375 14.9127604166667  5.82682291666667 17.5872395833333  C 4.72005208333333 20.26171875  4.16666666666667 23.0659722222222  4.16666666666667 26  C 4.16666666666667 28.9340277777778  4.72005208333333 31.73828125  5.82682291666667 34.4127604166667  C 6.93359375 37.0872395833333  8.41471354166667 39.3893229166667  10.2701822916667 41.3190104166667  C 12.1256510416667 43.2486979166667  14.3391927083333 44.7890625  16.9108072916667 45.9401041666667  C 19.482421875 47.0911458333333  22.1788194444444 47.6666666666667  25 47.6666666666667  C 27.8211805555556 47.6666666666667  30.517578125 47.0911458333333  33.0891927083333 45.9401041666667  C 35.6608072916667 44.7890625  37.8743489583333 43.2486979166667  39.7298177083333 41.3190104166667  C 41.5852864583333 39.3893229166667  43.06640625 37.0872395833333  44.1731770833333 34.4127604166667  C 45.2799479166667 31.73828125  45.8333333333333 28.9340277777778  45.8333333333333 26  C 45.8333333333333 23.0659722222222  45.2799479166667 20.26171875  44.1731770833333 17.5872395833333  C 43.06640625 14.9127604166667  41.5852864583333 12.6106770833333  39.7298177083333 10.6809895833333  C 37.8743489583333 8.75130208333334  35.6608072916667 7.2109375  33.0891927083333 6.05989583333334  Z M 46.6471354166667 12.94921875  C 48.8823784722222 16.9327256944444  50 21.2829861111111  50 26  C 50 30.7170138888889  48.8823784722222 35.0672743055556  46.6471354166667 39.05078125  C 44.4118923611111 43.0342881944444  41.3791232638889 46.1883680555556  37.548828125 48.5130208333333  C 33.7185329861111 50.8376736111111  29.5355902777778 52  25 52  C 20.4644097222222 52  16.2814670138889 50.8376736111111  12.451171875 48.5130208333333  C 8.62087673611111 46.1883680555556  5.58810763888889 43.0342881944444  3.35286458333333 39.05078125  C 1.11762152777778 35.0672743055556  0 30.7170138888889  0 26  C 0 21.2829861111111  1.11762152777778 16.9327256944444  3.35286458333333 12.94921875  C 5.58810763888889 8.96571180555556  8.62087673611111 5.81163194444444  12.451171875 3.48697916666666  C 16.2814670138889 1.16232638888888  20.4644097222222 0  25 0  C 29.5355902777778 0  33.7185329861111 1.16232638888888  37.548828125 3.48697916666666  C 41.3791232638889 5.81163194444444  44.4118923611111 8.96571180555556  46.6471354166667 12.94921875  Z " fill-rule="nonzero" fill="#ffffff" stroke="none" fill-opacity="0.835294117647059" transform="matrix(1 0 0 1 466 115 )" />
  </g>
</svg>